/vscmnt/brussel_pixiu_data/_data_brussel/112/vsc11236/PredSimResults/SUBJ07opt3D/expIG/worker_08.mot
version=1
nRows=10
nColumns=50
inDegrees=yes
endheader
                time	         pelvis_tilt	         pelvis_list	     pelvis_rotation	           pelvis_tx	           pelvis_ty	           pelvis_tz	       hip_flexion_r	     hip_adduction_r	      hip_rotation_r	        knee_angle_r	       ankle_angle_r	         mtp_angle_r	       hip_flexion_l	     hip_adduction_l	      hip_rotation_l	        knee_angle_l	       ankle_angle_l	         mtp_angle_l	    lumbar_extension	      lumbar_bending	     lumbar_rotation	 ercspn_r/activation	 intobl_r/activation	 extobl_r/activation	    abd_r/activation	    add_r/activation	hamstrings_r/activation	bifemsh_r/activation	glut_max_r/activation	iliopsoas_r/activation	rect_fem_r/activation	  vasti_r/activation	gastroc_r/activation	 soleus_r/activation	tib_ant_r/activation	 ercspn_l/activation	 intobl_l/activation	 extobl_l/activation	    abd_l/activation	    add_l/activation	hamstrings_l/activation	bifemsh_l/activation	glut_max_l/activation	iliopsoas_l/activation	rect_fem_l/activation	  vasti_l/activation	gastroc_l/activation	 soleus_l/activation	tib_ant_l/activation	
          1.06596362	         -4.26776037	         -0.35163871	          8.27610436	          1.38575270	          0.84669742	         -0.01218928	         30.45611741	         -2.21370775	         -4.69277815	         -6.43459168	          2.56472329	          0.28037074	        -15.39611975	         -0.36177488	          4.04170751	         -8.46852396	          7.47440986	         28.85987680	        -11.19944671	         -1.20593910	         -1.64346486	          0.12180718	          0.13607173	          0.01000017	          0.01177651	          0.14345490	          0.08593931	          0.13473386	          0.08560226	          0.03945303	          0.01000121	          0.01000002	          0.01000007	          0.01000006	          0.41374102	          0.12568591	          0.01000003	          0.01000003	          0.03141531	          0.01777379	          0.01852099	          0.15606311	          0.01922818	          0.21122065	          0.01177673	          0.01177660	          0.14464506	          0.30117788	          0.01884775	
          1.07662325	         -4.26583577	         -0.34818786	          8.33156516	          1.40185483	          0.84513628	         -0.01191986	         30.30198568	         -1.99524972	         -4.34907436	         -8.07632194	          2.18558814	          0.26115463	        -15.87235466	         -0.48327440	          3.73504273	         -9.51582394	          6.45962464	         30.42571661	        -11.09480436	         -0.80262320	         -1.82105704	          0.10343152	          0.12855983	          0.01000004	          0.01000008	          0.12181354	          0.07850515	          0.13579986	          0.13831972	          0.03350119	          0.01000007	          0.01000002	          0.01386920	          0.01177661	          0.45786801	          0.13736171	          0.01000001	          0.01000025	          0.02667603	          0.03902769	          0.01572912	          0.13251964	          0.01632745	          0.17935636	          0.01000023	          0.01000006	          0.12282407	          0.28125233	          0.01600440	
          1.08728289	         -4.25771556	         -0.33446941	          8.33581868	          1.41807687	          0.84378804	         -0.01157138	         30.06584574	         -1.83181562	         -4.02152901	         -9.60936042	          1.71359162	          0.25386179	        -16.18615758	         -0.57627967	          3.37879451	        -10.87284599	          5.34843094	         31.91334208	        -10.99190970	         -0.40901341	         -1.98827295	          0.13565761	          0.10916545	          0.01000004	          0.09926770	          0.14407798	          0.07011502	          0.11623069	          0.13824253	          0.02844725	          0.01000004	          0.01000000	          0.01177692	          0.01000001	          0.53960712	          0.15714876	          0.01000001	          0.01000004	          0.02265171	          0.03314057	          0.01336205	          0.11252791	          0.01386433	          0.15229932	          0.01000056	          0.01000018	          0.10429497	          0.25851787	          0.01359000	
          1.09794252	         -4.24492734	         -0.29644776	          8.29297814	          1.43423691	          0.84281420	         -0.01112864	         29.82497654	         -1.68706124	         -3.75309529	        -11.11635234	          1.20740241	          0.23174550	        -16.25962757	         -0.62701230	          2.98921291	        -12.64586606	          4.12021364	         33.25556220	        -10.91049918	         -0.04193160	         -2.14541656	          0.15310571	          0.09269688	          0.01000005	          0.15143873	          0.17260490	          0.05994311	          0.09869631	          0.17264095	          0.02415573	          0.01000008	          0.01000002	          0.01000029	          0.01000002	          0.57071378	          0.19682929	          0.01000002	          0.01000006	          0.01923450	          0.04179196	          0.01330081	          0.09555212	          0.01177280	          0.12932400	          0.01000072	          0.01000015	          0.08856115	          0.22355460	          0.01153983	
          1.10860216	         -4.22732503	         -0.24089925	          8.20787907	          1.45020538	          0.84235378	         -0.01060415	         29.63630323	         -1.55229546	         -3.52487849	        -12.75084845	          0.97569225	          0.20764095	        -16.02327237	         -0.64283979	          2.57107161	        -14.93459547	          2.79351177	         34.29339472	        -10.85717769	          0.30551402	         -2.29019141	          0.16300971	          0.07871273	          0.01000003	          0.19708443	          0.20127152	          0.05090050	          0.08380713	          0.20236086	          0.02051163	          0.01000008	          0.01623480	          0.01000009	          0.01000004	          0.56012912	          0.24111167	          0.01000001	          0.01000005	          0.01633281	          0.05842360	          0.01471272	          0.08113728	          0.01000003	          0.10981447	          0.01000019	          0.01000003	          0.07520091	          0.18982940	          0.01000001	
          1.11926180	         -4.20565316	         -0.17246927	          8.08151095	          1.46587420	          0.84253709	         -0.01001052	         29.50843352	         -1.42687113	         -3.33957838	        -14.51871194	          1.08194617	          0.18510532	        -15.40965769	         -0.62958203	          2.12051636	        -17.83171123	          1.37891010	         34.81845803	        -10.83521901	          0.63597109	         -2.41959932	          0.17629067	          0.06683822	          0.01000002	          0.21941263	          0.22953269	          0.04629596	          0.07116412	          0.21733866	          0.01741727	          0.01000009	          0.03777097	          0.01000008	          0.01000002	          0.52618520	          0.26958932	          0.01000001	          0.01000005	          0.01386886	          0.09181337	          0.01575597	          0.06889706	          0.01000002	          0.09324804	          0.01000019	          0.01000001	          0.06385618	          0.16119195	          0.01000001	
          1.12992143	         -4.18089571	         -0.09135443	          7.91443619	          1.48123818	          0.84339739	         -0.00936919	         29.36537832	         -1.30655615	         -3.18575780	        -16.26843860	          1.48494624	          0.17134571	        -14.38451525	         -0.59235816	          1.64189022	        -21.36705258	         -0.19119181	         34.70854241	        -10.83514396	          0.94822602	         -2.53033795	          0.17456070	          0.05675508	          0.01000002	          0.22493681	          0.24422287	          0.04278916	          0.06042843	          0.22023242	          0.01478973	          0.01000008	          0.05599721	          0.01000007	          0.01000001	          0.46018271	          0.28136052	          0.01000001	          0.01000005	          0.01177662	          0.11905890	          0.01655588	          0.05850344	          0.01000001	          0.07918078	          0.01000013	          0.01000000	          0.05422291	          0.13687471	          0.01000001	
          1.14058107	         -4.15460948	         -0.00091354	          7.70775771	          1.49632360	          0.84487098	         -0.00869161	         29.12446989	         -1.18164491	         -3.03634728	        -17.83930752	          2.13093235	          0.18769582	        -12.94993735	         -0.54301029	          1.15858517	        -25.47247426	         -2.08116334	         33.97302925	        -10.84615619	          1.24324303	         -2.62037793	          0.14822675	          0.04819308	          0.01000002	          0.21851361	          0.24466592	          0.04466155	          0.05131233	          0.20599856	          0.01255858	          0.01000012	          0.08503354	          0.01000010	          0.01000002	          0.39076020	          0.28891885	          0.01000001	          0.01000004	          0.01000002	          0.13656732	          0.01406242	          0.04967793	          0.01000001	          0.06723568	          0.01000011	          0.01000000	          0.04604290	          0.11622594	          0.01000000	
          1.15124071	         -4.12944737	          0.09421165	          7.46241217	          1.51113140	          0.84686294	         -0.00797259	         28.72045389	         -1.04004187	         -2.85641300	        -19.08779814	          2.90144634	          0.26347532	        -11.13591666	         -0.49091633	          0.70925814	        -30.01320633	         -4.40216927	         32.54538780	        -10.86475592	          1.52015400	         -2.69080221	          0.12586543	          0.04092272	          0.01000003	          0.21879870	          0.23009060	          0.05509801	          0.04357148	          0.17492197	          0.01066403	          0.01000009	          0.10972924	          0.01000009	          0.01000001	          0.33181076	          0.28172989	          0.01000001	          0.01000004	          0.01000000	          0.14247050	          0.01194165	          0.04218374	          0.01000001	          0.05709260	          0.01000005	          0.01000000	          0.03909692	          0.09869222	          0.02439905	
          1.16190034	         -4.10772121	          0.18885789	          7.18089607	          1.52563861	          0.84923228	         -0.00722195	         28.13402236	         -0.87604563	         -2.62011289	        -19.95061707	          3.65336260	          0.39584011	         -9.01152943	         -0.43270373	          0.33444072	        -34.83237152	         -6.85540093	         29.97098973	        -10.89268465	          1.78127671	         -2.74130190	          0.10687752	          0.03474917	          0.01000004	          0.22902417	          0.19782525	          0.06659593	          0.03699841	          0.14853345	          0.01000003	          0.01000004	          0.13204439	          0.01000007	          0.01000001	          0.28679867	          0.28269561	          0.03703369	          0.01000013	          0.01105705	          0.12206877	          0.01014165	          0.03582002	          0.01506967	          0.04847969	          0.03425183	          0.01000001	          0.03319881	          0.08380362	          0.18271988	
